<?xml version="1.0" encoding="utf-8"?>
<!-- Generator: Adobe Illustrator 18.0.0, SVG Export Plug-In . SVG Version: 6.00 Build 0)  -->
<!DOCTYPE svg PUBLIC "-//W3C//DTD SVG 1.1//EN" "http://www.w3.org/Graphics/SVG/1.1/DTD/svg11.dtd">
<svg version="1.1" id="Layer_1" xmlns="http://www.w3.org/2000/svg" xmlns:xlink="http://www.w3.org/1999/xlink" x="0px" y="0px"
	 width="278px" height="205px" viewBox="0 0 278 205" enable-background="new 0 0 278 205" xml:space="preserve">
<path fill="#FFFFFF" d="M124,72.5c0,0-2.6,2.4-3.3,2.5l-0.3,0.4c0,0,5.4,6.4,5.6,6.6s0.7,1,0.7,1l0.3-2.6
	C127,80.4,123.7,73.9,124,72.5z"/>
<path fill="#FFFFFF" d="M190.7,134.6"/>
<path fill="#FFFFFF" d="M193.3,132.1c0,0,11.6-4.6,3.3-13.7c0,0,0.9-2.5-1.5-2.3c0,0,0-3.1-0.8-3.6c0,0,8.1,0.2,3.4-10.4
	c0,0,1.5-9.6-7.7-9.6c0,0,1.2-1,1.8-2.2c0.6-1.2,0.5-2.6-0.1-3.6l0.7-1.8c0,0,2.5-3.9,0.3-3.6c0,0,0.9-4.9-0.2-8.1
	c-1.1-3.2-4.7-5.5-7.4-5.9c-2.7-0.4-5.4-0.9-8.7,2.6c-3.3,3.5-4,8.7-3.2,9.8s0.1,0.5,0.1,0.5s-0.9-0.9-1.6,1.2
	c-0.3,0.5,0.7,2.5,0.7,2.5l1.1,3c0,0,0.2,1.1,1.6,0.7c0,0-0.4,0.4-0.4,1.4c0,1,0.4,1.1,0.4,1.1l-0.9,0.4c0,0-3.5,0-5.9,1.7
	c-2.4,1.7-3.1,2.9-3.1,2.9l1,1.1v1.4l1.2,1.1c0,0,0,5.1,0.3,6c0.3,0.9,0.2,18.6,1,18.6c0.8,0-2.2,1.1-2.9,0.3
	c-0.7-0.8-0.4,1.7-0.4,1.7s1.8,3.7-3.1,7.9l-0.2,1.6h28.6C190.7,134.7,193.4,133.5,193.3,132.1z"/>
<path fill="#FFFFFF" d="M164.5,90.7l-0.1,3.3c0,0-1.8,0-2-1C162.2,91.9,163.3,92.2,164.5,90.7z"/>
<path fill="#FFFFFF" d="M145.4,100.6c0,0,0.9,0.1,0.9-0.2c0,0,0.9,3.1,1.9,6.2c0.8,2.7,1.7,5.5,2.9,5.5c2.7-0.1,2.5-1.4,2.5-1.4
	s-0.9,7-1.1,8.6c-0.2,1.7-0.8,4.2-0.2,5.1c0.6,0.9,0.6,3.9,0.3,4.1c-0.3,0.1-1.1,6.1-1.1,6.1l-11.9-0.1c0,0-1.4,0.1-1.1-1.6
	c0.2-1.7,1.2-1.6,1.2-1.6l-0.3-1.7c0,0,1.3-0.4,1.9-2.5c0.5-2.1,0.3-3.5,1.4-9.8c1.1-6.9,1.1-13.3,1.1-13.3S145.3,102.8,145.4,100.6
	z"/>
<path fill="#FFFFFF" d="M150.8,89.9c0.7,3-1.7,7.3-1.7,7.3l3.6,8.3c0,0,1.6-2.1,2.2-2.9c0.6-0.7,1.6-5.7,2.2-5.8
	c0.6-0.1,0-3.7-0.7-3.7l-3.9-0.6c0,0-0.7-0.2-0.3-1.6c0,0-0.5-0.2-0.5-0.6c0-0.4,0-0.7,0-0.7l0.2-0.7l-0.6-0.2l-0.3-0.3l1.1-1.7
	l0.2-0.7c0,0-0.2-0.1-0.3-0.8c-0.1-0.7,0.1-2.2,0.1-2.2s-0.7-0.1-0.7-0.4c0-0.3-0.2-1.6,1.9-2.3c0,0,0.9-2.3,5.1-2.5
	c4.2-0.2,5.7,2.2,5.8,2.6c0.1,0.4,0.8-5.6,0.1-6.2c0,0,1.5-4-0.1-4.9c0,0-0.6-1.2-0.2-1.6c0.4-0.3,1.4-2,0.5-2.8
	c0-1.6-0.6-3.7-0.6-3.7l-0.1-8.4c0,0,3.2-2.1,3.2-4.5c0,0,2.2-1.1,2.2-1.6c0-0.4,4.9,0.3,4.8-3.3c0,0,6.3-0.8,9-8.5
	c0,0,0.7-0.2,1.2-1.4c0.5-1.1-0.5-1.7-0.5-1.7l1.9-3.8l2.9-3.9l6.2,1.2c0,0,3.8,0.1,3.9-1.6c0.1-1.7-0.3-3.6-1.6-3.8
	c-1.2-0.2-2.1-1-2.1-1s-0.1-1.4-0.7-1.4c0,0,4.5-3.3,7.3-5.2c2.8-1.9,8.8-7.3,8.8-7.3s-1.1-1.4-3.2-0.9c-2.1,0.4-0.7,0.5-0.7,0.5
	l-17.7,12.1l-0.2,0.4h-5l3-1.8c0,0,1-1.9-2.5-1.5l-3.7,2c0,0-0.8-1.3-1.5-3.7c-0.6-2.4-1.1-2.1-1.1-2.1l-2.6-0.4l0.1,5.8
	c0,0,0.8-0.3,0.8,0.8c0,1.1-0.9,0.3-0.9,0.3v1.2l-5.1,2.4c0,0-2.9,1.4,0.9,1.7c0,0,2.6-0.2,3-0.6c0.4-0.4,3.8-1.9,3.8-1.9l1.9,0.6
	l-10.5,3.7l-0.3,1l4.6-0.4l7.9-2.1c0,0-0.2,1.7,0.5,2.5l-0.3,1.6l-1.5,2.2l-1.6,2.3c0,0-2.9,0.1-2.3,2.6c0,0-2.5,1.5-2.5,2.8
	c0,0-3.4-0.3-4.4,2.2c0,0-3.3-0.1-3.2,1.4c0,0-2.7-0.3-2.8,1.2c0,0-2.6-1.1-4,0.6l-0.4-0.3c0,0,0.6-1.4,0.2-1.8c0,0,0.4-2.4,0.1-2.9
	l-0.1-0.6l0.6-0.3c0,0,0.4-0.3,0.3-0.8c-0.1-0.4-2.1-1.6-2.1-1.6s-0.4-4.9-2.3-5.9l-0.3-0.1c0,0,0.8-1.4-0.2-1.7
	c-1-0.3-2.6-0.6-2.6-0.6l-1.8-0.2c0,0-6.8-1.7-9.5,1.5c-2.7,3.2-4.8,5.7-3.9,10.5c1,4.7,3.4,6.5,4.3,6.5c0,0,4.5-1.5,7.3,5.5
	c2.8,7-0.3,5.6-0.3,5.6s-0.3,2.2-1.8,2.7c-0.1,0-0.1,0-0.2,0.1l-0.4,0.4l-0.2,3l-0.4,0.2l-0.8-0.4l-0.3-0.5l-0.4,0.4l-0.1,0.5
	c0,0-0.3,0.2-0.9-0.4c0,0,0.2,0.8-0.1,1.1c-0.4,0.2-0.7,0.2-0.7,0.2s0.5,1-0.6,1.4c-1.1,0.4-2.7-1.1-2.7-1.1l-0.4-0.1l-0.4,0.6
	l0.4,0.7l0.6-0.1l0.2,1l1.4,1.7l-0.1,3.2c0,0,1.8,2.6,3.7,4.2c2.8,2.3,2.6,4.6,0.6,5.5C145.1,78.7,150.1,86.9,150.8,89.9z"/>
<path fill="none" stroke="#E22D91" stroke-width="0.1443" d="M145.1,76.3"/>
<path fill="#FFFFFF" d="M135.3,50.5l-0.1,1c0,0-0.5,0.6-0.5,1.1c0,0.5,0.2,1.5,0.4,1.8c0.2,0.3-0.1,0.4-0.1,0.4l-0.5,1l-0.2,0.6
	h-0.6c0,0,0-1.5-0.4-1.5c-0.4,0-0.3-0.3-0.3-0.3s0.5-0.4,0.5-2.9c0,0,0.7-0.2,0.7-0.7c0-0.4,0.2-0.6,0.2-0.6H135.3z"/>
<path fill="none" stroke="#E22D91" stroke-width="0.1443" d="M97.7,117.3"/>
<path fill="none" stroke="#E22D91" stroke-width="0.1443" d="M73.9,105.7"/>
<path fill="#FFFFFF" d="M136.1,43.2c-0.7-2.2-8.6-7-8.6-7s-5.7-0.1-5.6-1.2c0.1-1.1-1.7-3.1-1.7-3.1l-3.5,0.5c0,0-1-5.9-3.7-9.1
	c-5.4-5.1-10.4-2.3-10.4-2.3s-2.5,0.7-2.8,1.1c-0.4,0.4-0.5,1.2-0.5,1.2l-1.2,1.4l-0.4,0.9l-0.1,1l-0.2,0.9l-0.7,0.5
	c0,0-0.4,1-0.9,2c-0.5,1,0,1.9,0.4,3.8c0.4,2,1-0.2,1,1.4c0,1.6,4,4.2,4,4.2h1l0.1,0.6l0.2,3.1l0.5,0.1l1-0.1l0.2-0.2h0.7L105,43
	l-0.1,0.7c0,0-1.4,0.9-2.3,2.2c-1,1.4-0.7,6.4-0.7,7.7c0,1.2-2.1,8.2-2.1,8.2l-0.9,3.1v1.7l1.1,0.7l0.1,1.5l0.5,0.7l1,0.2
	c0,0-1.4,1-1.4,4.3c0,3.3-0.1,10.7-0.1,10.7l-0.1,1.7c0,0-2-2.9-4.1-5.1c-2.1-2.2-6.9-2.7-6.9-2.7l-0.4-0.3l0-2.5L87,76.1l-0.1-0.3
	l0.1-0.4c0,0,2.3-0.9,2.7-1.3c0.3-0.5,0.4-1.5-0.1-1.9c-0.4-0.4,0-2,0-2c0.1-3.5-2.4-5-2.4-5c0-2.6-1.3-2.8-1.3-2.8l0.3-1.2L84.7,60
	l-0.1-0.8c0,0,1.6,0.4,0.3-0.8c-1.3-1.2-4.2,0-4.2,0s-1.4-0.5-2.8-0.4c-1.3,0.1-1.8,1.6-1.8,1.6L75.9,59c0,0-1.2-0.4-3.7,1.3
	c-2.5,1.7-3.1,7.6-3.1,7.6s0.4-2.4,0.7,0.7c0.3,3,5.4,7.4,5.4,7.4h1.1v0.7h-0.9L74.8,78c0,0-1.4,0.8-2.1,3.8c-0.7,3,2.1,9,2.1,9
	s0.9,1.4-0.2,2.7c-1,1.4,0.2,4.6-0.2,5.4c-0.4,0.8-0.2,2.4-0.2,2.4c-0.4,0.6-0.5,2.6-0.5,2.6l0.1,1c0-0.1-0.5,0.8-0.5,0.8l-1.2,2.3
	l-0.2,0.7l0.5,0.9c0,0-0.1,0.8-0.7,1.8c-0.6,1,2.5,2.5,2.5,2.5s0.5,2.8-0.2,3.7c-0.8,0.8,0.1,3.4,0.1,4.1c0,0.8,1.1,0.4,0.2,1.6
	c-0.8,1.2,0.2,2.2,0.2,2.2c-1.2,3.2,2.8,12.8,2.8,12.8c-0.8,0.2-0.8,4.9-0.8,5.4c0,0.5-3.8,3.2-4.5,2.3c-0.6-0.9-3.9-0.9-3.9-0.9
	v-0.2c0,0,0-2-0.5-3.8c-0.4-1.5-1.4-2.7-1.6-2.9c-0.3-0.4-0.8-0.6-0.8-0.6c-0.5-4.2-5.6-5.1-5.8-5.2c-0.2-0.1-4.2-2.1-8.3,1.2
	c-4.1,3.2-3.5,9.3-3.5,9.3c-0.5,3.6,4.2,7.3,4.2,7.3c0.3,5,3.2,5,3.2,5c-2,0.7-2,5-2,5s-3.9,6.4-4.9,8.5c-1,2.1-2.1,8.6-2.1,8.6
	l-1.5,1.3c0,0-1.2,0.2-2.3,0.6c-1.5,0.6-3.1,1.5-3.2,1.8c-0.1,0.2,0,0.4,0.1,0.7c0.1,0.6,0.7,0.6,1.4,0.5c1.2-0.3,1.6-1,1.6-1
	s-1.2,0.1-0.9,0.8c0.2,0.7,5.6-1.2,5.6-1.2s-1.3,1,2.1,0.5c3.5-0.5,2.6-2.3,2.6-2.3l2.4-5.5c1.7-3.3,3.5-8.2,3.5-8.2l1.5-3
	c0,0,0.9-0.8,1.2-1.4c0.3-0.6,0.2-0.3,0.5,0c0.4,0.3,2.8,2.2,3.5,2.6c0.7,0.4,2.5,0.4,2.5,0.4c3.2,0.9,5.7-0.3,5.7-0.3
	c4.5,0.3,6,0.1,6,0.1c0,1,2.5,2.6,2.5,3.1c0,0.5-0.5,8.1-0.5,8.1s-1.3,2.7-0.8,1.8c0.4-1-0.6,1.2-0.6,1.2c-0.8,0.1-1.2,0.8-1.9,1.2
	c-1.1,0.7-2.3,1.4-1.8,1.7c0.7,0.5,1.2,0.3,1.2,0.3s1.2-0.6,1.7-0.5c0.5,0.1,0.3,0.9,0.9,0.9c1,0,1.7-1,2.1-1c1,0.1,0.3,1.1,1.1,1.2
	c0.8,0,1.6-1.2,1.6-1.2s0-0.8,1.7,0c1.8,0.8,1.7,0,1.9-0.2c-0.6-0.9-2.5-1.8-2.5-1.6c0,0.2-0.1-0.2-0.1-0.2c1.6-2,2-13.1,2-13.1
	l0.7,0.1c0.9,1.9,8.8,7.9,8.1,7.7c-0.8-0.2-3.4,2.3-4.6,2.4c-1.2,0.2-2.1,0.3-1.5,1.4c0.2,0.4,1.3-0.2,1.3,0.4
	c0.7,1,1.9,0.3,1.9,0.3l1-0.2c0,0,0-0.2,0.5-0.3c0.5-0.1,2,0.2,2,0.2c-0.4,0.3-0.9,0.6-0.8,0.8c0,0.1,0.1,0.7,0.7,0.7
	c0.2,0,0.6-0.1,0.7-0.1c0.4,0.2,1.6-0.8,2.2-0.8c1.8-0.1,2.7-0.2,3.4-0.4c0.7-0.2,1.7-1.2,1.7-1.2s0.4-0.9,0.1-1.8
	c-0.2-1-1.4-1.1-1.4-1.1l-0.4-2.6c0.6-8.5-2.7-8.7-2.7-8.7c0.8-1.1,0-4.5,0-4.5l-0.8-0.2c0,0-2.2,0.6-3.3-0.5
	c-1.1-1.2-1.6-2.7-1.6-2.7s0.4-0.8-0.6-2.6c-0.5-2.9,5.2-6.3,5.2-6.3c-0.4-4.2-3.7-6.5-3.7-6.5h-0.6c-0.1,0.8-0.6,3-1.4,5
	c-0.8,2-1.7,4-1.8,5.5c-0.2,1.5-1.2,5.1-1.2,5.1s-0.2,0.7,0.1,0.8c0.2,0.2,0.6,1.6,0.5,2.5c-0.2,0.9-1.2,1.6-1.7,1.5
	c-0.5-0.2-0.1-0.9-0.4-1.2c-0.3-0.2-1.5,0-1.8,0c-0.3,0-0.8,1.2-1.2,1.5c-0.4,0.3-0.9,0.2-1-0.2c-0.1-0.5,0-1.2,0-1.2h-0.8l-0.8,1.1
	c0,0-0.6,1-1.4,0.7c-0.8-0.3-0.2-0.7-0.2-0.7l0.9-1.4l-0.6-0.2c0,0,0,0-1.3,1.3c-1.3,1.3-1.3-0.2-1.3-0.2c-0.5,0.3-0.7-0.3-0.7-0.7
	c0-0.4,0.9-1,1.6-1.4c0.7-0.4,1.8-0.4,3.1-0.9c1.2-0.5,2.2-1.4,2.2-1.4s0.2-5.3,0.2-5.5c0-0.2,0.3-4,1-6.3c0.7-2.3,2.5-7.1,2.5-7.1
	l0.2-1.4c-0.3,0.4-1.6-0.6-2-1.3c-0.4-0.6,0.9-0.4,0.7-0.7c-0.2-0.3,0-3.7,0-4.3c0-0.6,0-1.8,0.3-2.9c0-0.2,0.3-1.2,1.8-3
	c1.5-1.8,3.3-1.1,3.3-1.1l0.2-0.4l2.7-2.3l0.6-0.3l0.2-0.3l0.5,0c0-0.3,0-0.4-0.1-0.7c-0.1-0.2,0-0.5-0.4-0.5
	c-0.2,0-0.5,0.1-0.6-0.1c-0.1-0.1,0-0.2-0.1-0.2c-0.1,0-0.2,0-0.3,0c-0.3,0-0.6,0.1-0.9,0c-0.2-0.1-0.3-0.3-0.5-0.5
	c-0.2-0.2-0.5-0.2-0.8-0.2c-0.2,0-0.5,0-0.7,0c-0.6,0,0.1-0.9,0.3-1c0.1,0,0.3-0.1,0.4,0c0.1,0,0.1,0.1,0.2,0.1
	c0.1,0,0.4-0.2,0.4-0.3c0.1-0.2-0.1-0.4-0.3-0.4c-0.3,0-0.7,0.1-1,0c-0.3-0.1,0-0.3,0-0.5c0.1-0.3,0-0.4-0.1-0.6
	c-0.1-0.1-0.1-0.2-0.1-0.3c0-0.1,0.1-0.1,0.1-0.2c0-0.2-0.3-0.2-0.4-0.2c-0.2,0-0.5-0.1-0.6-0.3c0-0.1,0-0.2,0-0.3
	c0-0.1,0-0.2,0-0.3c-0.2,0-0.2-0.1-0.2-0.3c0-0.2,0-0.3,0-0.5c0-0.2-0.2-0.2-0.3-0.3c-0.1-0.1-0.2,0-0.4,0c-0.1,0-0.4,0-0.4-0.1
	c-0.1-0.1,0-0.2,0-0.3c0.1-0.2,0.2-0.6,0.1-0.8c-0.1-0.2-0.2-0.2-0.3-0.4V108c0.1,0,0.2-0.2,0.3-0.3c0-0.1,0-0.3,0-0.4
	c0,0-0.7-0.3-0.8-0.7c0-0.2,0-0.4,0.1-0.6c0.1-0.1,0.3-0.1,0.5-0.2c0.4-0.1,0.5-0.5,0.3-0.8c-0.1-0.2-0.3-0.2-0.4-0.4
	c-0.1-0.3,0.1-0.7,0.2-1c0.2-0.6,0.4-1.1,0.9-1.5c0.5-0.4,0.8-1,1.2-1.6c0.2-0.3,0.4-0.6,0.6-0.7c0.2-0.1,0.3-0.1,0.5-0.1
	c0.4-0.1,0.6-0.5,0.7-0.9c0.1-0.3,0.3-0.5,0.4-0.8c0.1-0.2,0.2-0.4,0.2-0.6c0-0.4-0.6-0.7-0.8-1c-0.2-0.3-0.3-0.9,0.2-0.8
	c0.5,0,1,0.4,1.5,0.6c0.4,0.1,0.7,0.1,1.1-0.1c0.3-0.2,0.6-0.3,1-0.3c0.4,0,0.8,0.2,1.2,0c0.3-0.2,0.3-0.6,0.3-1
	c0-0.3,0.1-0.8-0.1-1.1c-0.2-0.3-0.7-0.3-1.1-0.3c-0.3,0-0.7,0.2-0.8,0.5c-0.3,0.5,0.1,0.8,0.4,1c-0.2,0-0.2-0.2-0.3-0.3
	c-0.1-0.2-0.2-0.3-0.3-0.4c-0.2-0.3-0.1-0.7,0.1-0.9c0.1-0.2,0.4-0.2,0.6-0.3c0.3-0.1,0.5,0,0.8,0c-0.1-0.2,0-0.5-0.2-0.7
	c-0.2-0.2-0.5-0.1-0.8,0c-0.3,0.1-0.5,0.1-0.7,0.4c-0.1,0.2-0.2,0.3-0.3,0.5c-0.1,0.1-0.3,0.2-0.4,0.3c-0.1,0.1,0,0.7-0.2,0.5
	c-0.2-0.2-0.1-0.6,0-0.9c0-0.2,0.1-0.4,0.2-0.5c0.1-0.2,0.3-0.2,0.4-0.4c0.2-0.2,0.3-0.5,0.5-0.8c0.2,0,0.4,0,0.7,0
	c0.2,0,0.4,0,0.6,0c0.5,0.1,0.8,0.3,1.1,0.7c0.1,0.1,0.2,0.3,0.3,0.2c0.1-0.1,0-0.4,0-0.6c0-0.4,0-0.8,0.1-1.2
	c0.2,0,0.2-0.1,0.4-0.1c0.1,0,0.3,0,0.4,0c0.1,0,0.3,0,0.4,0c0.1,0,0.2,0,0.4,0.1c0.1,0,0.1,0,0.2,0c0.1,0,0.1,0.1,0.2,0.1
	c0.1,0,0.1,0,0.2,0c0.1,0,0.1,0.1,0.2,0.1c0.1,0,0.1,0,0.2,0c0.1,0,0.1,0.1,0.2,0.1c0.1,0.1,0.3,0.3,0.3,0.5
	c0.5-2.9,1.1-5.9,1.5-8.8c0.2-1.4,0.3-2.7,0.5-4.1c0.2-1.2,0.4-2.4,0.9-3.6c0.1-0.2,0.2-0.6,0.5-0.7c0.2-0.1,0.3,0.2,0.3,0.4
	c0.2,0.9,0,1.8-0.1,2.7c-0.1,0.8-0.2,1.5-0.3,2.3c-0.2,0.8-0.4,1.6-0.6,2.4c-0.3,1-0.5,2.1-0.4,3.2c0.1,0.7,0.1,1,0.7,1.4l0.1,0.2
	l0.2,0.1l0.1,0.1c0.3-0.1,0.4,0,0.5,0.3c0.1,0.1,0.1,0.2,0.2,0.3c0.1,0.1,0.1,0.2,0.1,0.4l-0.5,0.5c-0.2,0.4,0.2,0.2,0.2,0.5
	c-0.1,1-0.2,2-0.3,3c0,0.5-0.2,1.1-0.1,1.6c0.1,0.4,0.2,0.8,0.2,1.3c0,0.2,0,0.5,0.1,0.7c0,0.1,0,0.2,0.1,0.3c0.2,0.1,0.5,0,0.7,0
	c0.4,0,0.7,0.1,1.1,0.2c0.3,0,0.6,0.1,1,0.2c0.3,0.1,0.6,0.1,0.9,0.3c0.3,0.1,0.6,0.4,0.8,0.6c0.4,0.4,0.8,0.9,1,1.5
	c0.2,0.5,0.1,1,0.1,1.5c0,0.3-0.1,0.8,0.2,1c0.1,0.1,0.3,0.2,0.4,0.3c0.2,0.2,0.2,0.6,0.4,0.8c0.1,0.2,0.3,0.2,0.5,0.2
	c0.2,0,0.4,0.1,0.6,0c0.2-0.1,0.2-0.4,0.2-0.6c-0.2-0.6-0.7-0.3-1,0c0-0.3,0-0.6,0.4-0.7c0.3-0.1,0.6,0.1,0.9,0.3
	c0.4,0.2,0.2,0.5,0.1,0.9c0,0.4-0.1,0.7-0.4,0.9c-0.2,0.2-0.5,0.1-0.8,0.1c-0.3,0-0.6,0.3-0.3,0.6c0.2,0.2,0.6,0,0.6,0.4
	c0,0.3-0.1,0.5-0.3,0.7c-0.3,0.3-0.4,0.6-0.4,1c0,0.3-0.1,0.7,0.3,0.7c0.4,0,0.7-0.1,1,0.3c0.1,0.2,0.3,0.5,0.4,0.7
	c0.1,0.3,0,0.8-0.3,1c-0.2,0.2-0.6,0-0.8,0.2c-0.2,0.2-0.2,0.8,0,1c0.1,0.3,0.5,0.5,0.8,0.7c0.2,0.1,0.5,0.2,0.7,0.3
	c0.2,0.2,0.5,0.5,0.6,0.7c0.4,0.5,0.2,0.7,0.2,1.1c0,0.1,0,0.1,0,0.2l-0.3,0.6c0.1-0.2,0.1-0.5,0.1-0.7c0-0.2,0-0.5-0.2-0.7
	c-0.2-0.1-0.5-0.1-0.7,0c-0.4,0.1-0.4,0.6-0.4,0.9l-0.2,0.2c0,0,0,0.1,0,0.1c0,0.7-2.1,0.4-2.1,0.4l0.1,0.8c0,0,0.3,0.1,0.6,0.1
	c0.4,0,0.3,0.6,0.3,0.6c1.1-0.1,5.7,3.2,5.7,3.2l0.6-0.4c7.9,0.1,6.6,5.7,7.2,5.6c0.6-0.1,0.3,2.2,0.3,2.2l0.5,0.4l0.2,0.3l0.5,0.4
	l0.3,0.2v0.9c0,0-0.1,0.4-0.2,0.8c-0.1,0.4-0.4,0-0.4,0l-0.2,0.6l0.4-0.1l0.4-0.1l0.4-0.9l0.2-0.9v-0.4v-0.6l-0.3-0.8l-0.3-0.4
	c0,0-0.1-0.3-0.1-0.5c0-0.2,0.3-0.1,0.3-0.1l0.3-0.6c0,0,0-0.9-0.1-1.2c-0.1-0.3-0.6-3.3-0.6-3.3l0.1-0.9c-0.8-0.8-0.3-2.3-0.3-2.3
	l-0.8-2.5l-0.6-2.8l-0.3-0.2l-0.3-0.7l-0.3-0.1l-0.5-0.9l0.1-0.9c-4.3-4.8-0.8-10.7-0.8-10.7c0.3-0.7,0.9-1.7,0.9-2.4
	c0-1.1-0.8-1.1-0.8-1.9c0-0.7,0.8-0.7,0.8-0.9c0.1-0.6-0.2-1-0.4-1.5c-0.2-0.4-0.8-0.7-0.9-1.2c-0.1-0.7,0.1-1.4,0.2-2
	c0,0-4.4-4-4.6-4.2c-0.2-0.1-6.8-3.8-8.3-6.1c-1.5-2.3-0.1-4-0.1-4s1.8-2.1,2.6-2.7c0.8-0.6,2.5-2.3,3.6-3.2
	c1.1-0.9,2.9-1.7,2.9-1.7l1.9-1.8l1.8-2c0.7-1.6,3.7-1.8,3.7-1.8l0.8-0.7v-0.5l-0.4,0c0,0,0.2-1.4,0.1-1.8c-0.1-0.4-0.3-1.6-0.3-1.6
	s0.1-1.1,0.2-1.3c0.2-0.2,0.4-0.3,0.4-0.3s0.4-2.2,1.2-3.6c0.8-1.4,3.7-0.7,3.7-0.7s0.1-0.2,0.1-0.4c0-0.2,1.2-0.7,1.2-0.7
	s0.4-0.7,0.3-0.8c-0.1-0.1,0.4-1.3,0.4-1.3"/>
<path fill="#FFFFFF" d="M103.7,92.3c-0.1-0.6-0.8-0.6-1.1-0.1c-0.1,0.3-0.1,0.6-0.1,0.9c0,0.4,0,0.9,0.1,1.3
	c0.1,0.3,0.2,0.6,0.5,0.7c0.2,0.1,0.7,0.2,0.9,0.1c0.3-0.1,0.2-0.5,0.2-0.8c0-0.3,0-0.7,0-1c0-0.3,0-0.6-0.1-0.9
	c-0.1-0.4-0.3-0.4-0.6-0.2"/>
<path fill="#FFFFFF" d="M104.1,90.6c0.2,0.3,0.3,0.4,0.6,0.5c0.4,0.1,0.6,0.3,0.6,0.7c0.1,0.8-0.2,1.6-0.1,2.4c0,0.3,0.1,0.8-0.1,1
	c-0.2,0.2-0.5-0.1-0.6-0.3c-0.1-0.3,0-0.7,0-1.1c0-0.4,0-0.7,0-1.1c0-0.4,0.2-0.7,0-1c-0.1-0.3-0.3-0.6-0.5-0.9"/>
<g>
	<path fill="#FFFFFF" d="M132.2,141.1c0,2.4-1.7,4.2-4.5,4.2c-2.6,0-4.4-1.9-4.4-4.2c0-2.4,1.8-4.3,4.4-4.3
		C130.4,136.8,132.1,138.7,132.2,141.1z M123.8,181.1v-31.2h7.9v31.2H123.8z"/>
	<path fill="#FFFFFF" d="M163.1,180.1c-1.7,0.8-4.9,1.7-8.8,1.7c-9.7,0-16.1-6.3-16.1-16c0-9.4,6.4-16.7,17.4-16.7
		c2.9,0,5.8,0.6,7.6,1.5l-1.4,5.9c-1.3-0.6-3.1-1.2-6-1.2c-6,0-9.6,4.4-9.6,10.1c0,6.4,4.2,10.1,9.6,10.1c2.8,0,4.7-0.6,6.2-1.2
		L163.1,180.1z"/>
	<path fill="#FFFFFF" d="M169,160.2c0-4.1-0.1-7.4-0.3-10.4h6.9l0.4,4.8h0.1c2.3-3.5,6-5.5,10.7-5.5c7.2,0,13.1,6.2,13.1,15.9
		c0,11.3-7.1,16.7-14.2,16.7c-3.9,0-7.2-1.7-8.8-4.2h-0.1v16.2H169V160.2z M176.8,168c0,0.8,0.1,1.5,0.3,2.2
		c0.8,3.2,3.6,5.5,6.9,5.5c5,0,7.9-4.2,7.9-10.3c0-5.5-2.7-10-7.8-10c-3.3,0-6.3,2.4-7.1,5.8c-0.2,0.6-0.3,1.3-0.3,2V168z"/>
	<path fill="#FFFFFF" d="M230.7,173.6c0,2.8,0.1,5.6,0.4,7.5H224l-0.5-3.5h-0.2c-1.9,2.4-5.2,4.2-9.2,4.2c-6.3,0-9.8-4.6-9.8-9.3
		c0-7.9,7-11.9,18.5-11.8v-0.5c0-2.1-0.8-5.4-6.3-5.4c-3.1,0-6.3,1-8.4,2.3l-1.5-5.1c2.3-1.4,6.3-2.8,11.3-2.8
		c10,0,12.9,6.3,12.9,13.1V173.6z M223,165.8c-5.6-0.1-10.9,1.1-10.9,5.8c0,3.1,2,4.5,4.5,4.5c3.1,0,5.4-2.1,6.2-4.3
		c0.2-0.6,0.3-1.2,0.3-1.7V165.8z"/>
</g>
<path fill="#FFFFFF" d="M77.3,180.8"/>
</svg>
